<mxfile host="app.diagrams.net" agent="Mozilla/5.0 (Macintosh; Intel Mac OS X 10_15_7) AppleWebKit/605.1.15 (KHTML, like Gecko) Version/17.2.1 Safari/605.1.15" version="24.7.17">
  <diagram name="Page-1" id="WxO6BOGUBnurIrzWOBdM">
    <mxGraphModel dx="838" dy="562" grid="1" gridSize="10" guides="1" tooltips="1" connect="1" arrows="1" fold="1" page="1" pageScale="1" pageWidth="827" pageHeight="1169" math="0" shadow="0">
      <root>
        <mxCell id="0" />
        <mxCell id="1" parent="0" />
        <mxCell id="YH6ClXLgHOdDZsWa93T5-1" value="" style="rounded=0;html=1;jettySize=auto;orthogonalLoop=1;fontSize=11;endArrow=block;endFill=0;endSize=8;strokeWidth=1;shadow=0;labelBackgroundColor=none;edgeStyle=orthogonalEdgeStyle;" edge="1" parent="1" source="YH6ClXLgHOdDZsWa93T5-2" target="YH6ClXLgHOdDZsWa93T5-5">
          <mxGeometry relative="1" as="geometry" />
        </mxCell>
        <mxCell id="YH6ClXLgHOdDZsWa93T5-2" value="Start" style="rounded=1;whiteSpace=wrap;html=1;fontSize=12;glass=0;strokeWidth=1;shadow=0;" vertex="1" parent="1">
          <mxGeometry x="353" y="40" width="120" height="40" as="geometry" />
        </mxCell>
        <mxCell id="YH6ClXLgHOdDZsWa93T5-3" value="Yes" style="rounded=0;html=1;jettySize=auto;orthogonalLoop=1;fontSize=11;endArrow=block;endFill=0;endSize=8;strokeWidth=1;shadow=0;labelBackgroundColor=none;edgeStyle=orthogonalEdgeStyle;entryX=0.5;entryY=0;entryDx=0;entryDy=0;" edge="1" parent="1" source="YH6ClXLgHOdDZsWa93T5-5" target="YH6ClXLgHOdDZsWa93T5-7">
          <mxGeometry x="-0.6667" y="17" relative="1" as="geometry">
            <mxPoint as="offset" />
          </mxGeometry>
        </mxCell>
        <mxCell id="YH6ClXLgHOdDZsWa93T5-4" value="No" style="edgeStyle=orthogonalEdgeStyle;rounded=0;html=1;jettySize=auto;orthogonalLoop=1;fontSize=11;endArrow=block;endFill=0;endSize=8;strokeWidth=1;shadow=0;labelBackgroundColor=none;" edge="1" parent="1" source="YH6ClXLgHOdDZsWa93T5-5" target="YH6ClXLgHOdDZsWa93T5-6">
          <mxGeometry x="-1" y="20" relative="1" as="geometry">
            <mxPoint x="-3" as="offset" />
          </mxGeometry>
        </mxCell>
        <mxCell id="YH6ClXLgHOdDZsWa93T5-5" value="&lt;span style=&quot;text-align: start;&quot;&gt;User Authentication&lt;/span&gt;" style="rhombus;whiteSpace=wrap;html=1;shadow=0;fontFamily=Helvetica;fontSize=12;align=center;strokeWidth=1;spacing=6;spacingTop=-4;" vertex="1" parent="1">
          <mxGeometry x="363" y="130" width="100" height="80" as="geometry" />
        </mxCell>
        <mxCell id="YH6ClXLgHOdDZsWa93T5-6" value="&lt;span style=&quot;text-align: start;&quot;&gt;&lt;font style=&quot;font-size: 13px;&quot;&gt;Show error and return to login&lt;/font&gt;&lt;/span&gt;" style="rounded=1;whiteSpace=wrap;html=1;fontSize=12;glass=0;strokeWidth=1;shadow=0;" vertex="1" parent="1">
          <mxGeometry x="513" y="150" width="120" height="40" as="geometry" />
        </mxCell>
        <mxCell id="YH6ClXLgHOdDZsWa93T5-9" value="" style="edgeStyle=orthogonalEdgeStyle;rounded=0;orthogonalLoop=1;jettySize=auto;html=1;" edge="1" parent="1" source="YH6ClXLgHOdDZsWa93T5-7" target="YH6ClXLgHOdDZsWa93T5-8">
          <mxGeometry relative="1" as="geometry" />
        </mxCell>
        <mxCell id="YH6ClXLgHOdDZsWa93T5-7" value="&lt;span style=&quot;text-align: start; font-size: 11px;&quot;&gt;Proceed to the main menu&lt;/span&gt;" style="rounded=0;whiteSpace=wrap;html=1;" vertex="1" parent="1">
          <mxGeometry x="348" y="270" width="130" height="40" as="geometry" />
        </mxCell>
        <mxCell id="YH6ClXLgHOdDZsWa93T5-8" value="End" style="rounded=1;whiteSpace=wrap;html=1;" vertex="1" parent="1">
          <mxGeometry x="353" y="360" width="120" height="60" as="geometry" />
        </mxCell>
      </root>
    </mxGraphModel>
  </diagram>
</mxfile>
